<?xml version="1.0" encoding="UTF-8" standalone="no"?>
<svg width="400" height="400" xmlns="http://www.w3.org/2000/svg">
  <!-- Background -->
  <rect width="400" height="400" fill="#222" />
  
  <!-- Title -->
  <text x="200" y="30" font-family="Arial" font-size="24" font-weight="bold" fill="white" text-anchor="middle">STRANDS GAME</text>
  
  <!-- Game board -->
  <g>
    <!-- Grid background -->
    <rect x="50" y="50" width="300" height="300" fill="#333" rx="5" ry="5" />
    
    <!-- Grid cells -->
    <g fill="#444" stroke="#555" stroke-width="1">
      <!-- Row 1 -->
      <rect x="50" y="50" width="60" height="60" />
      <rect x="110" y="50" width="60" height="60" />
      <rect x="170" y="50" width="60" height="60" />
      <rect x="230" y="50" width="60" height="60" />
      <rect x="290" y="50" width="60" height="60" />
      
      <!-- Row 2 -->
      <rect x="50" y="110" width="60" height="60" />
      <rect x="110" y="110" width="60" height="60" />
      <rect x="170" y="110" width="60" height="60" />
      <rect x="230" y="110" width="60" height="60" />
      <rect x="290" y="110" width="60" height="60" />
      
      <!-- Row 3 -->
      <rect x="50" y="170" width="60" height="60" />
      <rect x="110" y="170" width="60" height="60" />
      <rect x="170" y="170" width="60" height="60" />
      <rect x="230" y="170" width="60" height="60" />
      <rect x="290" y="170" width="60" height="60" />
      
      <!-- Row 4 -->
      <rect x="50" y="230" width="60" height="60" />
      <rect x="110" y="230" width="60" height="60" />
      <rect x="170" y="230" width="60" height="60" />
      <rect x="230" y="230" width="60" height="60" />
      <rect x="290" y="230" width="60" height="60" />
      
      <!-- Row 5 -->
      <rect x="50" y="290" width="60" height="60" />
      <rect x="110" y="290" width="60" height="60" />
      <rect x="170" y="290" width="60" height="60" />
      <rect x="230" y="290" width="60" height="60" />
      <rect x="290" y="290" width="60" height="60" />
    </g>
    
    <!-- Letters -->
    <g font-family="Arial" font-size="24" font-weight="bold" fill="white" text-anchor="middle" dominant-baseline="middle">
      <!-- Row 1 -->
      <text x="80" y="80">S</text>
      <text x="140" y="80">T</text>
      <text x="200" y="80">R</text>
      <text x="260" y="80">A</text>
      <text x="320" y="80">N</text>
      
      <!-- Row 2 -->
      <text x="80" y="140">D</text>
      <text x="140" y="140">S</text>
      <text x="200" y="140">G</text>
      <text x="260" y="140">A</text>
      <text x="320" y="140">M</text>
      
      <!-- Row 3 -->
      <text x="80" y="200">E</text>
      <text x="140" y="200">F</text>
      <text x="200" y="200">I</text>
      <text x="260" y="200">N</text>
      <text x="320" y="200">D</text>
      
      <!-- Row 4 -->
      <text x="80" y="260">W</text>
      <text x="140" y="260">O</text>
      <text x="200" y="260">R</text>
      <text x="260" y="260">D</text>
      <text x="320" y="260">S</text>
      
      <!-- Row 5 -->
      <text x="80" y="320">H</text>
      <text x="140" y="320">E</text>
      <text x="200" y="320">R</text>
      <text x="260" y="320">E</text>
      <text x="320" y="320">!</text>
    </g>
    
    <!-- Highlighted path -->
    <g stroke="#4CAF50" stroke-width="4" fill="none" stroke-linecap="round" stroke-linejoin="round">
      <path d="M80,80 L140,140 L200,200 L260,260 L320,320" />
    </g>
    
    <!-- Highlighted cells -->
    <g fill="rgba(76, 175, 80, 0.3)">
      <rect x="50" y="50" width="60" height="60" />
      <rect x="110" y="110" width="60" height="60" />
      <rect x="170" y="170" width="60" height="60" />
      <rect x="230" y="230" width="60" height="60" />
      <rect x="290" y="290" width="60" height="60" />
    </g>
  </g>
  
  <!-- Score display -->
  <g fill="white" font-family="Arial" font-size="18">
    <text x="50" y="380">Score: 25</text>
    <text x="300" y="380" text-anchor="end">Words: 3</text>
  </g>
</svg> 