<?xml version="1.0" encoding="UTF-8"?>
<svg width="200" height="200" viewBox="0 0 200 200" xmlns="http://www.w3.org/2000/svg">
    <!-- Background -->
    <rect x="0" y="0" width="200" height="200" fill="#f8f9fa"/>
    
    <!-- Grid -->
    <g stroke="#333" stroke-width="2">
        <!-- Horizontal lines -->
        <line x1="20" y1="40" x2="180" y2="40"/>
        <line x1="20" y1="80" x2="180" y2="80"/>
        <line x1="20" y1="120" x2="180" y2="120"/>
        <line x1="20" y1="160" x2="180" y2="160"/>
        
        <!-- Vertical lines -->
        <line x1="40" y1="20" x2="40" y2="180"/>
        <line x1="80" y1="20" x2="80" y2="180"/>
        <line x1="120" y1="20" x2="120" y2="180"/>
        <line x1="160" y1="20" x2="160" y2="180"/>
        
        <!-- Thicker lines for 3x3 boxes -->
        <line x1="20" y1="20" x2="180" y2="20" stroke-width="3"/>
        <line x1="20" y1="100" x2="180" y2="100" stroke-width="3"/>
        <line x1="20" y1="180" x2="180" y2="180" stroke-width="3"/>
        <line x1="20" y1="20" x2="20" y2="180" stroke-width="3"/>
        <line x1="100" y1="20" x2="100" y2="180" stroke-width="3"/>
        <line x1="180" y1="20" x2="180" y2="180" stroke-width="3"/>
    </g>
    
    <!-- Numbers -->
    <g fill="#333" font-family="Arial" font-size="20" text-anchor="middle" dominant-baseline="middle">
        <text x="40" y="40">5</text>
        <text x="120" y="40">3</text>
        <text x="160" y="40">7</text>
        <text x="40" y="80">6</text>
        <text x="80" y="80">1</text>
        <text x="120" y="80">9</text>
        <text x="40" y="120">9</text>
        <text x="80" y="120">8</text>
        <text x="160" y="120">6</text>
        <text x="40" y="160">8</text>
        <text x="80" y="160">6</text>
        <text x="120" y="160">3</text>
        <text x="160" y="160">4</text>
    </g>
    
    <!-- Title -->
    <text x="100" y="190" font-family="Arial" font-size="16" text-anchor="middle" fill="#333">Sudoku</text>
</svg> 