<svg xmlns="http://www.w3.org/2000/svg" width="200" height="200" viewBox="0 0 200 200">
  <!-- Factory building -->
  <rect x="40" y="60" width="120" height="100" fill="#7f8c8d" />
  <rect x="60" y="80" width="30" height="40" fill="#34495e" />
  <rect x="110" y="80" width="30" height="40" fill="#34495e" />
  <rect x="60" y="130" width="80" height="30" fill="#34495e" />
  
  <!-- Roof -->
  <polygon points="30,60 100,20 170,60" fill="#e74c3c" />
  
  <!-- Chimney -->
  <rect x="140" y="30" width="20" height="40" fill="#95a5a6" />
  <rect x="135" y="25" width="30" height="10" fill="#95a5a6" />
  
  <!-- Smoke -->
  <circle cx="150" cy="20" r="5" fill="#bdc3c7" opacity="0.7" />
  <circle cx="145" cy="15" r="7" fill="#bdc3c7" opacity="0.5" />
  <circle cx="155" cy="10" r="9" fill="#bdc3c7" opacity="0.3" />
  
  <!-- Conveyor belt -->
  <rect x="30" y="160" width="140" height="10" fill="#95a5a6" />
  <rect x="30" y="170" width="140" height="5" fill="#7f8c8d" />
  
  <!-- Items on conveyor -->
  <rect x="50" y="155" width="15" height="15" fill="#e67e22" />
  <rect x="90" y="155" width="15" height="15" fill="#3498db" />
  <rect x="130" y="155" width="15" height="15" fill="#2ecc71" />
  
  <!-- Worker -->
  <circle cx="70" cy="140" r="10" fill="#f1c40f" />
  <rect x="65" y="150" width="10" height="15" fill="#f1c40f" />
  
  <!-- Machine -->
  <rect x="100" y="100" width="30" height="20" fill="#e74c3c" />
  <circle cx="115" cy="110" r="5" fill="#f1c40f" />
</svg> 