<svg xmlns="http://www.w3.org/2000/svg" viewBox="0 0 100 100" width="100" height="100">
  <!-- Background -->
  <rect x="0" y="0" width="100" height="100" fill="#2c3e50" />
  
  <!-- Ground -->
  <rect x="0" y="70" width="100" height="30" fill="#34495e" />
  
  <!-- Trees -->
  <path d="M10,70 L10,40 L5,40 L10,30 L15,40 L10,40 Z" fill="#27ae60" />
  <path d="M25,70 L25,35 L20,35 L25,25 L30,35 L25,35 Z" fill="#27ae60" />
  <path d="M85,70 L85,45 L80,45 L85,35 L90,45 L85,45 Z" fill="#27ae60" />
  <path d="M70,70 L70,40 L65,40 L70,30 L75,40 L70,40 Z" fill="#27ae60" />
  
  <!-- Campfire -->
  <circle cx="50" cy="65" r="5" fill="#e74c3c" />
  <path d="M45,65 L50,55 L55,65 Z" fill="#f39c12" />
  <circle cx="50" cy="63" r="2" fill="#f1c40f" />
  
  <!-- Person -->
  <circle cx="50" cy="45" r="5" fill="#ecf0f1" />
  <path d="M50,50 L45,60 L50,58 L55,60 Z" fill="#3498db" />
  
  <!-- Stars -->
  <circle cx="15" cy="15" r="1" fill="#f1c40f" />
  <circle cx="25" cy="10" r="1" fill="#f1c40f" />
  <circle cx="35" cy="20" r="1" fill="#f1c40f" />
  <circle cx="75" cy="15" r="1" fill="#f1c40f" />
  <circle cx="85" cy="10" r="1" fill="#f1c40f" />
  <circle cx="65" cy="20" r="1" fill="#f1c40f" />
  
  <!-- Moon -->
  <circle cx="80" cy="25" r="8" fill="#f1c40f" />
  <circle cx="85" cy="20" r="8" fill="#2c3e50" />
</svg> 